%TF.GenerationSoftware,KiCad,Pcbnew,7.0.8*%
%TF.CreationDate,2023-11-02T17:37:10-07:00*%
%TF.ProjectId,3D4E Macropad,33443445-204d-4616-9372-6f7061642e6b,rev?*%
%TF.SameCoordinates,Original*%
%TF.FileFunction,Soldermask,Bot*%
%TF.FilePolarity,Negative*%
%FSLAX46Y46*%
G04 Gerber Fmt 4.6, Leading zero omitted, Abs format (unit mm)*
G04 Created by KiCad (PCBNEW 7.0.8) date 2023-11-02 17:37:10*
%MOMM*%
%LPD*%
G01*
G04 APERTURE LIST*
G04 Aperture macros list*
%AMRoundRect*
0 Rectangle with rounded corners*
0 $1 Rounding radius*
0 $2 $3 $4 $5 $6 $7 $8 $9 X,Y pos of 4 corners*
0 Add a 4 corners polygon primitive as box body*
4,1,4,$2,$3,$4,$5,$6,$7,$8,$9,$2,$3,0*
0 Add four circle primitives for the rounded corners*
1,1,$1+$1,$2,$3*
1,1,$1+$1,$4,$5*
1,1,$1+$1,$6,$7*
1,1,$1+$1,$8,$9*
0 Add four rect primitives between the rounded corners*
20,1,$1+$1,$2,$3,$4,$5,0*
20,1,$1+$1,$4,$5,$6,$7,0*
20,1,$1+$1,$6,$7,$8,$9,0*
20,1,$1+$1,$8,$9,$2,$3,0*%
%AMHorizOval*
0 Thick line with rounded ends*
0 $1 width*
0 $2 $3 position (X,Y) of the first rounded end (center of the circle)*
0 $4 $5 position (X,Y) of the second rounded end (center of the circle)*
0 Add line between two ends*
20,1,$1,$2,$3,$4,$5,0*
0 Add two circle primitives to create the rounded ends*
1,1,$1,$2,$3*
1,1,$1,$4,$5*%
G04 Aperture macros list end*
%ADD10C,1.442000*%
%ADD11RoundRect,0.102000X0.619000X0.619000X-0.619000X0.619000X-0.619000X-0.619000X0.619000X-0.619000X0*%
%ADD12C,1.750000*%
%ADD13C,3.987800*%
%ADD14HorizOval,2.250000X0.655001X0.730000X-0.655001X-0.730000X0*%
%ADD15C,2.250000*%
%ADD16HorizOval,2.250000X0.020000X0.290000X-0.020000X-0.290000X0*%
%ADD17R,1.700000X1.700000*%
%ADD18O,1.700000X1.700000*%
%ADD19C,2.134400*%
%ADD20RoundRect,0.102000X-0.965200X0.965200X-0.965200X-0.965200X0.965200X-0.965200X0.965200X0.965200X0*%
%ADD21C,4.000000*%
%ADD22O,1.800000X1.800000*%
%ADD23O,1.500000X1.500000*%
G04 APERTURE END LIST*
D10*
%TO.C,D3*%
X38354000Y-103500000D03*
D11*
X46646000Y-103500000D03*
%TD*%
D12*
%TO.C,MX9*%
X75420000Y-114300000D03*
D13*
X80500000Y-114300000D03*
D12*
X85580000Y-114300000D03*
D14*
X77345001Y-111030000D03*
D15*
X78000000Y-110300000D03*
D16*
X83020000Y-109510000D03*
D15*
X83040000Y-109220000D03*
%TD*%
D12*
%TO.C,MX7*%
X37340000Y-114310000D03*
D13*
X42420000Y-114310000D03*
D12*
X47500000Y-114310000D03*
D14*
X39265001Y-111040000D03*
D15*
X39920000Y-110310000D03*
D16*
X44940000Y-109520000D03*
D15*
X44960000Y-109230000D03*
%TD*%
D10*
%TO.C,D4*%
X57354000Y-103500000D03*
D11*
X65646000Y-103500000D03*
%TD*%
D10*
%TO.C,D1*%
X57354000Y-84500000D03*
D11*
X65646000Y-84500000D03*
%TD*%
D10*
%TO.C,D2*%
X76354000Y-84500000D03*
D11*
X84646000Y-84500000D03*
%TD*%
D10*
%TO.C,D8*%
X76500000Y-122500000D03*
D11*
X84792000Y-122500000D03*
%TD*%
D12*
%TO.C,MX5*%
X56420000Y-95250000D03*
D13*
X61500000Y-95250000D03*
D12*
X66580000Y-95250000D03*
D14*
X58345001Y-91980000D03*
D15*
X59000000Y-91250000D03*
D16*
X64020000Y-90460000D03*
D15*
X64040000Y-90170000D03*
%TD*%
D17*
%TO.C,ssd1*%
X91500000Y-55000000D03*
D18*
X91500000Y-57540000D03*
X91500000Y-60080000D03*
X91500000Y-62620000D03*
%TD*%
D19*
%TO.C,U2*%
X27500000Y-53420000D03*
X27500000Y-55960000D03*
D20*
X27500000Y-63580000D03*
D19*
X27500000Y-58500000D03*
X27500000Y-61040000D03*
%TD*%
D10*
%TO.C,D5*%
X76500000Y-103500000D03*
D11*
X84792000Y-103500000D03*
%TD*%
D10*
%TO.C,D6*%
X38208000Y-122500000D03*
D11*
X46500000Y-122500000D03*
%TD*%
D12*
%TO.C,MX4*%
X37340000Y-95250000D03*
D13*
X42420000Y-95250000D03*
D12*
X47500000Y-95250000D03*
D14*
X39265001Y-91980000D03*
D15*
X39920000Y-91250000D03*
D16*
X44940000Y-90460000D03*
D15*
X44960000Y-90170000D03*
%TD*%
D12*
%TO.C,MX3*%
X75420000Y-76200000D03*
D13*
X80500000Y-76200000D03*
D12*
X85580000Y-76200000D03*
D14*
X77345001Y-72930000D03*
D15*
X78000000Y-72200000D03*
D16*
X83020000Y-71410000D03*
D15*
X83040000Y-71120000D03*
%TD*%
D10*
%TO.C,D0*%
X38354000Y-84400000D03*
D11*
X46646000Y-84400000D03*
%TD*%
D12*
%TO.C,MX8*%
X56390000Y-114320000D03*
D13*
X61470000Y-114320000D03*
D12*
X66550000Y-114320000D03*
D14*
X58315001Y-111050000D03*
D15*
X58970000Y-110320000D03*
D16*
X63990000Y-109530000D03*
D15*
X64010000Y-109240000D03*
%TD*%
D12*
%TO.C,MX6*%
X75420000Y-95250000D03*
D13*
X80500000Y-95250000D03*
D12*
X85580000Y-95250000D03*
D14*
X77345001Y-91980000D03*
D15*
X78000000Y-91250000D03*
D16*
X83020000Y-90460000D03*
D15*
X83040000Y-90170000D03*
%TD*%
D21*
%TO.C,HOLE_M3*%
X25000000Y-125000000D03*
%TD*%
D22*
%TO.C,U1*%
X103885000Y-51630000D03*
D23*
X104185000Y-54660000D03*
X109035000Y-54660000D03*
D22*
X109335000Y-51630000D03*
D18*
X97720000Y-51500000D03*
X97720000Y-54040000D03*
D17*
X97720000Y-56580000D03*
D18*
X97720000Y-59120000D03*
X97720000Y-61660000D03*
X97720000Y-64200000D03*
X97720000Y-66740000D03*
D17*
X97720000Y-69280000D03*
D18*
X97720000Y-71820000D03*
X97720000Y-74360000D03*
X97720000Y-76900000D03*
X97720000Y-79440000D03*
D17*
X97720000Y-81980000D03*
D18*
X97720000Y-84520000D03*
X97720000Y-87060000D03*
X97720000Y-89600000D03*
X97720000Y-92140000D03*
D17*
X97720000Y-94680000D03*
D18*
X97720000Y-97220000D03*
X97720000Y-99760000D03*
X115500000Y-99760000D03*
X115500000Y-97220000D03*
D17*
X115500000Y-94680000D03*
D18*
X115500000Y-92140000D03*
X115500000Y-89600000D03*
X115500000Y-87060000D03*
X115500000Y-84520000D03*
D17*
X115500000Y-81980000D03*
D18*
X115500000Y-79440000D03*
X115500000Y-76900000D03*
X115500000Y-74360000D03*
X115500000Y-71820000D03*
D17*
X115500000Y-69280000D03*
D18*
X115500000Y-66740000D03*
X115500000Y-64200000D03*
X115500000Y-61660000D03*
X115500000Y-59120000D03*
D17*
X115500000Y-56580000D03*
D18*
X115500000Y-54040000D03*
X115500000Y-51500000D03*
X104070000Y-99530000D03*
D17*
X106610000Y-99530000D03*
D18*
X109150000Y-99530000D03*
%TD*%
D21*
%TO.C,HOLE_M3*%
X25000000Y-70000000D03*
%TD*%
D12*
%TO.C,MX2*%
X56356250Y-76200000D03*
D13*
X61436250Y-76200000D03*
D12*
X66516250Y-76200000D03*
D14*
X58281251Y-72930000D03*
D15*
X58936250Y-72200000D03*
D16*
X63956250Y-71410000D03*
D15*
X63976250Y-71120000D03*
%TD*%
D10*
%TO.C,D7*%
X57208000Y-122500000D03*
D11*
X65500000Y-122500000D03*
%TD*%
D12*
%TO.C,MX1*%
X37340000Y-76200000D03*
D13*
X42420000Y-76200000D03*
D12*
X47500000Y-76200000D03*
D14*
X39265001Y-72930000D03*
D15*
X39920000Y-72200000D03*
D16*
X44940000Y-71410000D03*
D15*
X44960000Y-71120000D03*
%TD*%
D21*
%TO.C,HOLE_M3*%
X120000000Y-125000000D03*
%TD*%
M02*
