M48
; DRILL file {KiCad 7.0.8} date Thu Nov  2 17:38:15 2023
; FORMAT={-:-/ absolute / metric / decimal}
; #@! TF.CreationDate,2023-11-02T17:38:15-07:00
; #@! TF.GenerationSoftware,Kicad,Pcbnew,7.0.8
; #@! TF.FileFunction,NonPlated,1,2,NPTH
FMAT,2
METRIC
; #@! TA.AperFunction,NonPlated,NPTH,ComponentDrill
T1C1.500
; #@! TA.AperFunction,NonPlated,NPTH,ComponentDrill
T2C1.750
; #@! TA.AperFunction,NonPlated,NPTH,ComponentDrill
T3C1.800
; #@! TA.AperFunction,NonPlated,NPTH,ComponentDrill
T4C3.988
%
G90
G05
T1
X104.185Y-54.66
X109.035Y-54.66
T2
X37.34Y-76.2
X37.34Y-95.25
X37.34Y-114.31
X47.5Y-76.2
X47.5Y-95.25
X47.5Y-114.31
X56.356Y-76.2
X56.39Y-114.32
X56.42Y-95.25
X66.516Y-76.2
X66.55Y-114.32
X66.58Y-95.25
X75.42Y-76.2
X75.42Y-95.25
X75.42Y-114.3
X85.58Y-76.2
X85.58Y-95.25
X85.58Y-114.3
T3
X103.885Y-51.63
X109.335Y-51.63
T4
X42.42Y-76.2
X42.42Y-95.25
X42.42Y-114.31
X61.436Y-76.2
X61.47Y-114.32
X61.5Y-95.25
X80.5Y-76.2
X80.5Y-95.25
X80.5Y-114.3
T0
M30
