%TF.GenerationSoftware,KiCad,Pcbnew,7.0.8*%
%TF.CreationDate,2023-11-02T17:37:10-07:00*%
%TF.ProjectId,3D4E Macropad,33443445-204d-4616-9372-6f7061642e6b,rev?*%
%TF.SameCoordinates,Original*%
%TF.FileFunction,Copper,L1,Top*%
%TF.FilePolarity,Positive*%
%FSLAX46Y46*%
G04 Gerber Fmt 4.6, Leading zero omitted, Abs format (unit mm)*
G04 Created by KiCad (PCBNEW 7.0.8) date 2023-11-02 17:37:10*
%MOMM*%
%LPD*%
G01*
G04 APERTURE LIST*
G04 Aperture macros list*
%AMHorizOval*
0 Thick line with rounded ends*
0 $1 width*
0 $2 $3 position (X,Y) of the first rounded end (center of the circle)*
0 $4 $5 position (X,Y) of the second rounded end (center of the circle)*
0 Add line between two ends*
20,1,$1,$2,$3,$4,$5,0*
0 Add two circle primitives to create the rounded ends*
1,1,$1,$2,$3*
1,1,$1,$4,$5*%
G04 Aperture macros list end*
%TA.AperFunction,ComponentPad*%
%ADD10C,1.238000*%
%TD*%
%TA.AperFunction,ComponentPad*%
%ADD11R,1.238000X1.238000*%
%TD*%
%TA.AperFunction,ComponentPad*%
%ADD12HorizOval,2.250000X0.655001X0.730000X-0.655001X-0.730000X0*%
%TD*%
%TA.AperFunction,ComponentPad*%
%ADD13C,2.250000*%
%TD*%
%TA.AperFunction,ComponentPad*%
%ADD14HorizOval,2.250000X0.020000X0.290000X-0.020000X-0.290000X0*%
%TD*%
%TA.AperFunction,ComponentPad*%
%ADD15R,1.700000X1.700000*%
%TD*%
%TA.AperFunction,ComponentPad*%
%ADD16O,1.700000X1.700000*%
%TD*%
%TA.AperFunction,ComponentPad*%
%ADD17C,1.930400*%
%TD*%
%TA.AperFunction,ComponentPad*%
%ADD18R,1.930400X1.930400*%
%TD*%
%TA.AperFunction,ComponentPad*%
%ADD19C,4.000000*%
%TD*%
%TA.AperFunction,SMDPad,CuDef*%
%ADD20R,3.500000X1.700000*%
%TD*%
%TA.AperFunction,SMDPad,CuDef*%
%ADD21R,1.700000X3.500000*%
%TD*%
%TA.AperFunction,Conductor*%
%ADD22C,0.381000*%
%TD*%
G04 APERTURE END LIST*
D10*
%TO.P,D3,A*%
%TO.N,Net-(MX4-ROW)*%
X38354000Y-103500000D03*
D11*
%TO.P,D3,C*%
%TO.N,Row_1*%
X46646000Y-103500000D03*
%TD*%
D12*
%TO.P,MX9,1,COL*%
%TO.N,Col 2*%
X77345001Y-111030000D03*
D13*
X78000000Y-110300000D03*
D14*
%TO.P,MX9,2,ROW*%
%TO.N,Net-(MX9-ROW)*%
X83020000Y-109510000D03*
D13*
X83040000Y-109220000D03*
%TD*%
D12*
%TO.P,MX7,1,COL*%
%TO.N,Col 0*%
X39265001Y-111040000D03*
D13*
X39920000Y-110310000D03*
D14*
%TO.P,MX7,2,ROW*%
%TO.N,Net-(MX7-ROW)*%
X44940000Y-109520000D03*
D13*
X44960000Y-109230000D03*
%TD*%
D10*
%TO.P,D4,A*%
%TO.N,Net-(MX5-ROW)*%
X57354000Y-103500000D03*
D11*
%TO.P,D4,C*%
%TO.N,Row_1*%
X65646000Y-103500000D03*
%TD*%
D10*
%TO.P,D1,A*%
%TO.N,Net-(MX2-ROW)*%
X57354000Y-84500000D03*
D11*
%TO.P,D1,C*%
%TO.N,Row_0*%
X65646000Y-84500000D03*
%TD*%
D10*
%TO.P,D2,A*%
%TO.N,Net-(MX3-ROW)*%
X76354000Y-84500000D03*
D11*
%TO.P,D2,C*%
%TO.N,Row_0*%
X84646000Y-84500000D03*
%TD*%
D10*
%TO.P,D8,A*%
%TO.N,Net-(MX9-ROW)*%
X76500000Y-122500000D03*
D11*
%TO.P,D8,C*%
%TO.N,Row_2*%
X84792000Y-122500000D03*
%TD*%
D12*
%TO.P,MX5,1,COL*%
%TO.N,Col 1*%
X58345001Y-91980000D03*
D13*
X59000000Y-91250000D03*
D14*
%TO.P,MX5,2,ROW*%
%TO.N,Net-(MX5-ROW)*%
X64020000Y-90460000D03*
D13*
X64040000Y-90170000D03*
%TD*%
D15*
%TO.P,ssd1,1,GND*%
%TO.N,GND*%
X91500000Y-55000000D03*
D16*
%TO.P,ssd1,2,VCC*%
%TO.N,VCC*%
X91500000Y-57540000D03*
%TO.P,ssd1,3,SCL*%
%TO.N,SSD1306-SCK*%
X91500000Y-60080000D03*
%TO.P,ssd1,4,SDA*%
%TO.N,SSD1306-SDA*%
X91500000Y-62620000D03*
%TD*%
D17*
%TO.P,U2,CLK,CLK*%
%TO.N,KY040-CLK*%
X27500000Y-53420000D03*
%TO.P,U2,DT,DT*%
%TO.N,KY040-DT*%
X27500000Y-55960000D03*
D18*
%TO.P,U2,GND,GND*%
%TO.N,GND*%
X27500000Y-63580000D03*
D17*
%TO.P,U2,SW,SW*%
%TO.N,KY040-SW*%
X27500000Y-58500000D03*
%TO.P,U2,VCC,VCC*%
%TO.N,VCC*%
X27500000Y-61040000D03*
%TD*%
D10*
%TO.P,D5,A*%
%TO.N,Net-(MX6-ROW)*%
X76500000Y-103500000D03*
D11*
%TO.P,D5,C*%
%TO.N,Row_1*%
X84792000Y-103500000D03*
%TD*%
D10*
%TO.P,D6,A*%
%TO.N,Net-(MX7-ROW)*%
X38208000Y-122500000D03*
D11*
%TO.P,D6,C*%
%TO.N,Row_2*%
X46500000Y-122500000D03*
%TD*%
D12*
%TO.P,MX4,1,COL*%
%TO.N,Col 0*%
X39265001Y-91980000D03*
D13*
X39920000Y-91250000D03*
D14*
%TO.P,MX4,2,ROW*%
%TO.N,Net-(MX4-ROW)*%
X44940000Y-90460000D03*
D13*
X44960000Y-90170000D03*
%TD*%
D12*
%TO.P,MX3,1,COL*%
%TO.N,Col 2*%
X77345001Y-72930000D03*
D13*
X78000000Y-72200000D03*
D14*
%TO.P,MX3,2,ROW*%
%TO.N,Net-(MX3-ROW)*%
X83020000Y-71410000D03*
D13*
X83040000Y-71120000D03*
%TD*%
D10*
%TO.P,D0,A*%
%TO.N,Net-(MX1-ROW)*%
X38354000Y-84400000D03*
D11*
%TO.P,D0,C*%
%TO.N,Row_0*%
X46646000Y-84400000D03*
%TD*%
D12*
%TO.P,MX8,1,COL*%
%TO.N,Col 1*%
X58315001Y-111050000D03*
D13*
X58970000Y-110320000D03*
D14*
%TO.P,MX8,2,ROW*%
%TO.N,Net-(MX8-ROW)*%
X63990000Y-109530000D03*
D13*
X64010000Y-109240000D03*
%TD*%
D12*
%TO.P,MX6,1,COL*%
%TO.N,Col 2*%
X77345001Y-91980000D03*
D13*
X78000000Y-91250000D03*
D14*
%TO.P,MX6,2,ROW*%
%TO.N,Net-(MX6-ROW)*%
X83020000Y-90460000D03*
D13*
X83040000Y-90170000D03*
%TD*%
D19*
%TO.P,HOLE_M3,1*%
%TO.N,N/C*%
X25000000Y-125000000D03*
%TD*%
D16*
%TO.P,U1,1,GPIO0*%
%TO.N,KY040-CLK*%
X97720000Y-51500000D03*
D20*
X96820000Y-51500000D03*
D16*
%TO.P,U1,2,GPIO1*%
%TO.N,KY040-DT*%
X97720000Y-54040000D03*
D20*
X96820000Y-54040000D03*
D15*
%TO.P,U1,3,GND*%
%TO.N,GND*%
X97720000Y-56580000D03*
D20*
X96820000Y-56580000D03*
D16*
%TO.P,U1,4,GPIO2*%
%TO.N,KY040-SW*%
X97720000Y-59120000D03*
D20*
X96820000Y-59120000D03*
D16*
%TO.P,U1,5,GPIO3*%
%TO.N,unconnected-(U1-GPIO3-Pad5)*%
X97720000Y-61660000D03*
D20*
X96820000Y-61660000D03*
D16*
%TO.P,U1,6,GPIO4*%
%TO.N,SSD1306-SDA*%
X97720000Y-64200000D03*
D20*
X96820000Y-64200000D03*
D16*
%TO.P,U1,7,GPIO5*%
%TO.N,SSD1306-SCK*%
X97720000Y-66740000D03*
D20*
X96820000Y-66740000D03*
D15*
%TO.P,U1,8,GND*%
%TO.N,GND*%
X97720000Y-69280000D03*
D20*
X96820000Y-69280000D03*
D16*
%TO.P,U1,9,GPIO6*%
%TO.N,Col 0*%
X97720000Y-71820000D03*
D20*
X96820000Y-71820000D03*
D16*
%TO.P,U1,10,GPIO7*%
%TO.N,Col 1*%
X97720000Y-74360000D03*
D20*
X96820000Y-74360000D03*
D16*
%TO.P,U1,11,GPIO8*%
%TO.N,Col 2*%
X97720000Y-76900000D03*
D20*
X96820000Y-76900000D03*
D16*
%TO.P,U1,12,GPIO9*%
%TO.N,unconnected-(U1-GPIO9-Pad12)*%
X97720000Y-79440000D03*
D20*
X96820000Y-79440000D03*
D15*
%TO.P,U1,13,GND*%
%TO.N,GND*%
X97720000Y-81980000D03*
D20*
X96820000Y-81980000D03*
D16*
%TO.P,U1,14,GPIO10*%
%TO.N,unconnected-(U1-GPIO10-Pad14)*%
X97720000Y-84520000D03*
D20*
X96820000Y-84520000D03*
D16*
%TO.P,U1,15,GPIO11*%
%TO.N,unconnected-(U1-GPIO11-Pad15)*%
X97720000Y-87060000D03*
D20*
X96820000Y-87060000D03*
D16*
%TO.P,U1,16,GPIO12*%
%TO.N,unconnected-(U1-GPIO12-Pad16)*%
X97720000Y-89600000D03*
D20*
X96820000Y-89600000D03*
D16*
%TO.P,U1,17,GPIO13*%
%TO.N,Row_0*%
X97720000Y-92140000D03*
D20*
X96820000Y-92140000D03*
D15*
%TO.P,U1,18,GND*%
%TO.N,GND*%
X97720000Y-94680000D03*
D20*
X96820000Y-94680000D03*
D16*
%TO.P,U1,19,GPIO14*%
%TO.N,Row_1*%
X97720000Y-97220000D03*
D20*
X96820000Y-97220000D03*
D16*
%TO.P,U1,20,GPIO15*%
%TO.N,Row_2*%
X97720000Y-99760000D03*
D20*
X96820000Y-99760000D03*
D16*
%TO.P,U1,21,GPIO16*%
%TO.N,unconnected-(U1-GPIO16-Pad21)*%
X115500000Y-99760000D03*
D20*
X116400000Y-99760000D03*
D16*
%TO.P,U1,22,GPIO17*%
%TO.N,unconnected-(U1-GPIO17-Pad22)*%
X115500000Y-97220000D03*
D20*
X116400000Y-97220000D03*
D15*
%TO.P,U1,23,GND*%
%TO.N,unconnected-(U1-GND-Pad23)*%
X115500000Y-94680000D03*
D20*
X116400000Y-94680000D03*
D16*
%TO.P,U1,24,GPIO18*%
%TO.N,unconnected-(U1-GPIO18-Pad24)*%
X115500000Y-92140000D03*
D20*
X116400000Y-92140000D03*
D16*
%TO.P,U1,25,GPIO19*%
%TO.N,unconnected-(U1-GPIO19-Pad25)*%
X115500000Y-89600000D03*
D20*
X116400000Y-89600000D03*
D16*
%TO.P,U1,26,GPIO20*%
%TO.N,unconnected-(U1-GPIO20-Pad26)*%
X115500000Y-87060000D03*
D20*
X116400000Y-87060000D03*
D16*
%TO.P,U1,27,GPIO21*%
%TO.N,unconnected-(U1-GPIO21-Pad27)*%
X115500000Y-84520000D03*
D20*
X116400000Y-84520000D03*
D15*
%TO.P,U1,28,GND*%
%TO.N,unconnected-(U1-GND-Pad28)*%
X115500000Y-81980000D03*
D20*
X116400000Y-81980000D03*
D16*
%TO.P,U1,29,GPIO22*%
%TO.N,unconnected-(U1-GPIO22-Pad29)*%
X115500000Y-79440000D03*
D20*
X116400000Y-79440000D03*
D16*
%TO.P,U1,30,RUN*%
%TO.N,unconnected-(U1-RUN-Pad30)*%
X115500000Y-76900000D03*
D20*
X116400000Y-76900000D03*
D16*
%TO.P,U1,31,GPIO26_ADC0*%
%TO.N,unconnected-(U1-GPIO26_ADC0-Pad31)*%
X115500000Y-74360000D03*
D20*
X116400000Y-74360000D03*
D16*
%TO.P,U1,32,GPIO27_ADC1*%
%TO.N,unconnected-(U1-GPIO27_ADC1-Pad32)*%
X115500000Y-71820000D03*
D20*
X116400000Y-71820000D03*
D15*
%TO.P,U1,33,AGND*%
%TO.N,unconnected-(U1-AGND-Pad33)*%
X115500000Y-69280000D03*
D20*
X116400000Y-69280000D03*
D16*
%TO.P,U1,34,GPIO28_ADC2*%
%TO.N,unconnected-(U1-GPIO28_ADC2-Pad34)*%
X115500000Y-66740000D03*
D20*
X116400000Y-66740000D03*
D16*
%TO.P,U1,35,ADC_VREF*%
%TO.N,unconnected-(U1-ADC_VREF-Pad35)*%
X115500000Y-64200000D03*
D20*
X116400000Y-64200000D03*
D16*
%TO.P,U1,36,3V3*%
%TO.N,VCC*%
X115500000Y-61660000D03*
D20*
X116400000Y-61660000D03*
D16*
%TO.P,U1,37,3V3_EN*%
%TO.N,unconnected-(U1-3V3_EN-Pad37)*%
X115500000Y-59120000D03*
D20*
X116400000Y-59120000D03*
D15*
%TO.P,U1,38,GND*%
%TO.N,GND*%
X115500000Y-56580000D03*
D20*
X116400000Y-56580000D03*
D16*
%TO.P,U1,39,VSYS*%
%TO.N,unconnected-(U1-VSYS-Pad39)*%
X115500000Y-54040000D03*
D20*
X116400000Y-54040000D03*
D16*
%TO.P,U1,40,VBUS*%
%TO.N,unconnected-(U1-VBUS-Pad40)*%
X115500000Y-51500000D03*
D20*
X116400000Y-51500000D03*
D16*
%TO.P,U1,41,SWCLK*%
%TO.N,unconnected-(U1-SWCLK-Pad41)*%
X104070000Y-99530000D03*
D21*
X104070000Y-100430000D03*
D15*
%TO.P,U1,42,GND*%
%TO.N,unconnected-(U1-GND-Pad42)*%
X106610000Y-99530000D03*
D21*
X106610000Y-100430000D03*
D16*
%TO.P,U1,43,SWDIO*%
%TO.N,unconnected-(U1-SWDIO-Pad43)*%
X109150000Y-99530000D03*
D21*
X109150000Y-100430000D03*
%TD*%
D19*
%TO.P,HOLE_M3,1*%
%TO.N,N/C*%
X25000000Y-70000000D03*
%TD*%
D12*
%TO.P,MX2,1,COL*%
%TO.N,Col 1*%
X58281251Y-72930000D03*
D13*
X58936250Y-72200000D03*
D14*
%TO.P,MX2,2,ROW*%
%TO.N,Net-(MX2-ROW)*%
X63956250Y-71410000D03*
D13*
X63976250Y-71120000D03*
%TD*%
D10*
%TO.P,D7,A*%
%TO.N,Net-(MX8-ROW)*%
X57208000Y-122500000D03*
D11*
%TO.P,D7,C*%
%TO.N,Row_2*%
X65500000Y-122500000D03*
%TD*%
D12*
%TO.P,MX1,1,COL*%
%TO.N,Col 0*%
X39265001Y-72930000D03*
D13*
X39920000Y-72200000D03*
D14*
%TO.P,MX1,2,ROW*%
%TO.N,Net-(MX1-ROW)*%
X44940000Y-71410000D03*
D13*
X44960000Y-71120000D03*
%TD*%
D19*
%TO.P,HOLE_M3,1*%
%TO.N,N/C*%
X120000000Y-125000000D03*
%TD*%
D22*
%TO.N,Col 0*%
X34500000Y-107660000D02*
X38610000Y-111770000D01*
X92000000Y-69000000D02*
X94820000Y-71820000D01*
X34840000Y-73660000D02*
X34500000Y-74000000D01*
X92000000Y-67000000D02*
X92000000Y-69000000D01*
X39920000Y-72200000D02*
X45120000Y-67000000D01*
X34500000Y-93000000D02*
X34500000Y-107660000D01*
X38610000Y-92710000D02*
X34790000Y-92710000D01*
X94820000Y-71820000D02*
X97720000Y-71820000D01*
X34500000Y-88600000D02*
X38610000Y-92710000D01*
X45120000Y-67000000D02*
X92000000Y-67000000D01*
X34790000Y-92710000D02*
X34500000Y-93000000D01*
X34500000Y-74000000D02*
X34500000Y-88600000D01*
X38610000Y-73660000D02*
X34840000Y-73660000D01*
%TO.N,Col 1*%
X53500000Y-107620000D02*
X57660000Y-111780000D01*
X53500000Y-74500000D02*
X53500000Y-88520000D01*
X90000000Y-69000000D02*
X90500000Y-69500000D01*
X54500000Y-73500000D02*
X53500000Y-74500000D01*
X53500000Y-88520000D02*
X57690000Y-92710000D01*
X90500000Y-69500000D02*
X90500000Y-71500000D01*
X53790000Y-92710000D02*
X53500000Y-93000000D01*
X58936250Y-72200000D02*
X62000000Y-69136250D01*
X57690000Y-92710000D02*
X53790000Y-92710000D01*
X93360000Y-74360000D02*
X97720000Y-74360000D01*
X90500000Y-71500000D02*
X93360000Y-74360000D01*
X57466250Y-73500000D02*
X54500000Y-73500000D01*
X62000000Y-69136250D02*
X62000000Y-69000000D01*
X57466250Y-73500000D02*
X57626250Y-73660000D01*
X53500000Y-93000000D02*
X53500000Y-107620000D01*
X62000000Y-69000000D02*
X90000000Y-69000000D01*
%TO.N,Col 2*%
X73840000Y-73660000D02*
X73000000Y-74500000D01*
X76690000Y-92710000D02*
X73290000Y-92710000D01*
X79942761Y-72200000D02*
X81242761Y-73500000D01*
X76690000Y-73660000D02*
X73840000Y-73660000D01*
X73000000Y-74500000D02*
X73000000Y-89020000D01*
X76690000Y-73660000D02*
X76099602Y-73660000D01*
X97620000Y-77000000D02*
X97720000Y-76900000D01*
X73000000Y-89020000D02*
X76690000Y-92710000D01*
X90000000Y-74000000D02*
X90000000Y-77000000D01*
X76099602Y-73660000D02*
X75759602Y-74000000D01*
X73000000Y-108070000D02*
X76690000Y-111760000D01*
X78000000Y-72200000D02*
X79942761Y-72200000D01*
X90000000Y-77000000D02*
X97620000Y-77000000D01*
X81242761Y-73500000D02*
X89500000Y-73500000D01*
X73290000Y-92710000D02*
X73000000Y-93000000D01*
X73000000Y-93000000D02*
X73000000Y-108070000D01*
X89500000Y-73500000D02*
X90000000Y-74000000D01*
%TO.N,KY040-SW*%
X27500000Y-58500000D02*
X27844156Y-58844156D01*
X27844156Y-58844156D02*
X97444156Y-58844156D01*
X97444156Y-58844156D02*
X97720000Y-59120000D01*
%TO.N,KY040-DT*%
X95040000Y-54040000D02*
X97720000Y-54040000D01*
X88500000Y-53000000D02*
X94000000Y-53000000D01*
X85540000Y-55960000D02*
X88500000Y-53000000D01*
X94000000Y-53000000D02*
X95040000Y-54040000D01*
X27500000Y-55960000D02*
X85540000Y-55960000D01*
%TO.N,KY040-CLK*%
X27500000Y-53420000D02*
X86080000Y-53420000D01*
X86080000Y-53420000D02*
X88000000Y-51500000D01*
X88000000Y-51500000D02*
X97720000Y-51500000D01*
%TO.N,SSD1306-SCK*%
X93500000Y-66500000D02*
X97480000Y-66500000D01*
X90000000Y-65500000D02*
X92500000Y-65500000D01*
X97480000Y-66500000D02*
X97720000Y-66740000D01*
X91500000Y-60080000D02*
X90000000Y-61580000D01*
X92500000Y-65500000D02*
X93500000Y-66500000D01*
X90000000Y-61580000D02*
X90000000Y-65500000D01*
%TO.N,SSD1306-SDA*%
X91500000Y-62620000D02*
X93080000Y-64200000D01*
X93080000Y-64200000D02*
X97720000Y-64200000D01*
%TD*%
M02*
