M48
; DRILL file {KiCad 7.0.8} date Thu Nov  2 17:38:15 2023
; FORMAT={-:-/ absolute / metric / decimal}
; #@! TF.CreationDate,2023-11-02T17:38:15-07:00
; #@! TF.GenerationSoftware,Kicad,Pcbnew,7.0.8
; #@! TF.FileFunction,Plated,1,2,PTH
FMAT,2
METRIC
; #@! TA.AperFunction,Plated,PTH,ComponentDrill
T1C0.730
; #@! TA.AperFunction,Plated,PTH,ComponentDrill
T2C1.000
; #@! TA.AperFunction,Plated,PTH,ComponentDrill
T3C1.016
; #@! TA.AperFunction,Plated,PTH,ComponentDrill
T4C1.020
; #@! TA.AperFunction,Plated,PTH,ComponentDrill
T5C1.470
; #@! TA.AperFunction,Plated,PTH,ComponentDrill
T6C3.200
%
G90
G05
T1
X38.208Y-122.5
X38.354Y-84.4
X38.354Y-103.5
X46.5Y-122.5
X46.646Y-84.4
X46.646Y-103.5
X57.208Y-122.5
X57.354Y-84.5
X57.354Y-103.5
X65.5Y-122.5
X65.646Y-84.5
X65.646Y-103.5
X76.354Y-84.5
X76.5Y-103.5
X76.5Y-122.5
X84.646Y-84.5
X84.792Y-103.5
X84.792Y-122.5
T2
X91.5Y-55.0
X91.5Y-57.54
X91.5Y-60.08
X91.5Y-62.62
T3
X27.5Y-53.42
X27.5Y-55.96
X27.5Y-58.5
X27.5Y-61.04
X27.5Y-63.58
T4
X97.72Y-51.5
X97.72Y-54.04
X97.72Y-56.58
X97.72Y-59.12
X97.72Y-61.66
X97.72Y-64.2
X97.72Y-66.74
X97.72Y-69.28
X97.72Y-71.82
X97.72Y-74.36
X97.72Y-76.9
X97.72Y-79.44
X97.72Y-81.98
X97.72Y-84.52
X97.72Y-87.06
X97.72Y-89.6
X97.72Y-92.14
X97.72Y-94.68
X97.72Y-97.22
X97.72Y-99.76
X104.07Y-99.53
X106.61Y-99.53
X109.15Y-99.53
X115.5Y-51.5
X115.5Y-54.04
X115.5Y-56.58
X115.5Y-59.12
X115.5Y-61.66
X115.5Y-64.2
X115.5Y-66.74
X115.5Y-69.28
X115.5Y-71.82
X115.5Y-74.36
X115.5Y-76.9
X115.5Y-79.44
X115.5Y-81.98
X115.5Y-84.52
X115.5Y-87.06
X115.5Y-89.6
X115.5Y-92.14
X115.5Y-94.68
X115.5Y-97.22
X115.5Y-99.76
T5
X38.61Y-73.66
X38.61Y-92.71
X38.61Y-111.77
X39.92Y-72.2
X39.92Y-91.25
X39.92Y-110.31
X44.92Y-71.7
X44.92Y-90.75
X44.92Y-109.81
X44.96Y-71.12
X44.96Y-90.17
X44.96Y-109.23
X57.626Y-73.66
X57.66Y-111.78
X57.69Y-92.71
X58.936Y-72.2
X58.97Y-110.32
X59.0Y-91.25
X63.936Y-71.7
X63.97Y-109.82
X63.976Y-71.12
X64.0Y-90.75
X64.01Y-109.24
X64.04Y-90.17
X76.69Y-73.66
X76.69Y-92.71
X76.69Y-111.76
X78.0Y-72.2
X78.0Y-91.25
X78.0Y-110.3
X83.0Y-71.7
X83.0Y-90.75
X83.0Y-109.8
X83.04Y-71.12
X83.04Y-90.17
X83.04Y-109.22
T6
X25.0Y-70.0
X25.0Y-125.0
X120.0Y-125.0
T0
M30
